<svg xmlns="http://www.w3.org/2000/svg" viewBox="0 0 64 64" role="img" aria-label="Grey awareness ribbon">
  <defs>
    <linearGradient id="ribbonLight" x1="16" y1="8" x2="46" y2="58" gradientUnits="userSpaceOnUse">
      <stop offset="0" stop-color="#d9dddf"/>
      <stop offset="0.48" stop-color="#9ca4a9"/>
      <stop offset="1" stop-color="#5d6469"/>
    </linearGradient>
    <linearGradient id="ribbonDark" x1="48" y1="10" x2="18" y2="58" gradientUnits="userSpaceOnUse">
      <stop offset="0" stop-color="#eef0f1"/>
      <stop offset="0.45" stop-color="#a6adb2"/>
      <stop offset="1" stop-color="#6e767b"/>
    </linearGradient>
  </defs>
  <rect width="64" height="64" rx="14" fill="#f8f8f6"/>
  <path
    d="M31.8 7.5c-8.1 0-14.8 5.7-16.4 13.7L11.2 42.3h11.6l3.8-18.6c.5-2.8 2.4-4.8 5.2-4.8 2.7 0 4.7 2 5.2 4.8l4 18.6h11.6l-4.4-21.1C46.5 13.2 39.9 7.5 31.8 7.5Z"
    fill="url(#ribbonLight)"
  />
  <path
    d="M19.8 56.5 13 49.5l26-30.1c2.8-3.2 7.7-3.5 10.9-.7l1.4 1.2-25.8 29.9c-1.7 2-3.5 4.2-5.7 6.7Z"
    fill="url(#ribbonDark)"
  />
  <path
    d="M44.2 56.5 51 49.5 25 19.4c-2.8-3.2-7.7-3.5-10.9-.7l-1.4 1.2 25.8 29.9c1.7 2 3.5 4.2 5.7 6.7Z"
    fill="url(#ribbonLight)"
  />
  <path d="M25.1 19.5 32 27.5l6.9-8c-3.4-3.1-10.4-3.1-13.8 0Z" fill="#737b80" opacity="0.58"/>
  <path
    d="M13.7 20.1c8.8-7.3 27.8-7.3 36.6 0"
    fill="none"
    stroke="#ffffff"
    stroke-linecap="round"
    stroke-width="2"
    opacity="0.35"
  />
</svg>
